# xmcd
#
# Track frame offsets: 
#        150
#        22779
#        53655
#        66134
#        83306
#        104111
#        125132
#        143442
#        162432
#        183813
#        194554
#        213112
#        227415
#        247934
#        272528
#        303034
#
# Disc length: 4384 seconds
#
# Revision: 1
# Processed by: cddbd v1.5.2PL0 Copyright (c) Steve Scherf et al.
# Submitted via: ExactAudioCopyFreeDBPlugin 1.0
#
DISCID=c5111e10
DTITLE=群星 - TEST-CD试音极品06CDB
DYEAR=2011
DGENRE=stereo
TTITLE0=节日序曲
TTITLE1=倾国倾城
TTITLE2=艾伦泰勒
TTITLE3=魂萦旧梦
TTITLE4=短暂的浪漫
TTITLE5=灰姑娘
TTITLE6=微风细雨
TTITLE7=最真的梦
TTITLE8=有多少爱可以重来
TTITLE9=兰花草
TTITLE10=小白船
TTITLE11=独上西楼
TTITLE12=原乡人
TTITLE13=君在前哨
TTITLE14=悲情城市
TTITLE15=鼓舞
EXTD=
EXTT0=
EXTT1=
EXTT2=
EXTT3=
EXTT4=
EXTT5=
EXTT6=
EXTT7=
EXTT8=
EXTT9=
EXTT10=
EXTT11=
EXTT12=
EXTT13=
EXTT14=
EXTT15=
PLAYORDER=
